<svg width="1920" height="4194" viewBox="0 0 1920 4194" fill="none" xmlns="http://www.w3.org/2000/svg">
<path d="M2141.5 440.5C2141.5 671.079 1925.03 646.2 1754.5 723.5C1451.55 860.827 904 1000.08 904 769.5C904 538.921 1189.5 -129 1618 -144C1844.44 -144 2141.5 209.921 2141.5 440.5Z" fill="url(#paint0_linear_8_2)"/>
<path d="M-356.905 2467.99C-289.207 2233.18 -264.765 2094.4 -63.1667 2067.26C294.985 2019.04 1033.54 2271.65 856.343 2694.1C788.644 2928.92 300.168 3384.06 -153.778 3269.73C-391.334 3201.24 -424.604 2702.8 -356.905 2467.99Z" fill="url(#paint1_linear_8_2)"/>
<path d="M2205.48 3267.07C2282.68 3497.54 1917.22 4349 1744.71 4492.71C1438.23 4748.03 1021.14 4265.68 934.124 3817.57C856.925 3587.1 1762.07 2784.82 2255.55 2602.84C2518.99 2514.6 2128.28 3036.6 2205.48 3267.07Z" fill="url(#paint2_linear_8_2)"/>
<defs>
<linearGradient id="paint0_linear_8_2" x1="1943.5" y1="46.9999" x2="971" y2="862" gradientUnits="userSpaceOnUse">
<stop offset="0.0833333" stop-color="#D10000"/>
<stop offset="1" stop-color="#D10000" stop-opacity="0"/>
</linearGradient>
<linearGradient id="paint1_linear_8_2" x1="-264.715" y1="2928.61" x2="978.067" y2="2356.39" gradientUnits="userSpaceOnUse">
<stop offset="0.0833333" stop-color="#D10000"/>
<stop offset="1" stop-color="#D10000" stop-opacity="0"/>
</linearGradient>
<linearGradient id="paint2_linear_8_2" x1="2307.49" y1="2788.86" x2="1643.02" y2="4082.15" gradientUnits="userSpaceOnUse">
<stop offset="0.0833333" stop-color="#D10000"/>
<stop offset="0.4375" stop-color="#D10000" stop-opacity="0.903409"/>
<stop offset="1" stop-color="#D10000" stop-opacity="0"/>
</linearGradient>
</defs>
</svg>
